<svg width="25" height="24" viewBox="0 0 25 24" fill="none" xmlns="http://www.w3.org/2000/svg">
<g clip-path="url(#clip0_1_42)">
<path d="M21.2273 0H3.77273C1.96525 0 0.5 1.46525 0.5 3.27273V20.7273C0.5 22.5347 1.96525 24 3.77273 24H21.2273C23.0347 24 24.5 22.5347 24.5 20.7273V3.27273C24.5 1.46525 23.0347 0 21.2273 0Z" fill="#D6EF0E"/>
<path d="M16.3018 10.5791L16.0605 12.6695C16.0504 12.7649 16.0057 12.8533 15.9349 12.9179C15.864 12.9825 15.7718 13.0189 15.6759 13.02H13.4941L13.4832 19.2177C13.4839 19.2912 13.4557 19.362 13.4047 19.4148C13.3537 19.4676 13.2839 19.4982 13.2105 19.5H11C10.9633 19.5 10.9269 19.4926 10.8931 19.4782C10.8592 19.4639 10.8287 19.4428 10.8032 19.4163C10.7777 19.3898 10.7579 19.3584 10.7448 19.3241C10.7318 19.2897 10.7258 19.2531 10.7273 19.2164V13.02H9.09091C9.03952 13.0195 8.98873 13.0088 8.94145 12.9887C8.89417 12.9685 8.85133 12.9392 8.81537 12.9025C8.77941 12.8658 8.75103 12.8223 8.73186 12.7746C8.71269 12.7269 8.7031 12.6759 8.70364 12.6245L8.69546 10.5341C8.69474 10.4825 8.70418 10.4313 8.72325 10.3834C8.74233 10.3355 8.77065 10.2918 8.80662 10.2548C8.84258 10.2178 8.88547 10.1883 8.93285 10.1679C8.98023 10.1475 9.03116 10.1366 9.08273 10.1359H10.7273V8.11773C10.7273 5.775 12.1182 4.5 14.1582 4.5H15.83C15.8817 4.50053 15.9328 4.51127 15.9803 4.53158C16.0278 4.5519 16.0709 4.5814 16.107 4.6184C16.1431 4.65539 16.1716 4.69915 16.1907 4.74716C16.2099 4.79517 16.2194 4.84649 16.2186 4.89818V6.65727C16.2194 6.70896 16.2099 6.76028 16.1907 6.8083C16.1716 6.85631 16.1431 6.90007 16.107 6.93706C16.0709 6.97405 16.0278 7.00355 15.9803 7.02387C15.9328 7.04419 15.8817 7.05492 15.83 7.05545H14.8046C13.6959 7.05545 13.4805 7.60091 13.4805 8.38909V10.1359H15.9173C15.9727 10.1366 16.0273 10.149 16.0776 10.1723C16.1279 10.1957 16.1727 10.2294 16.209 10.2712C16.2453 10.3131 16.2724 10.3622 16.2884 10.4152C16.3044 10.4683 16.3089 10.5241 16.3018 10.5791Z" fill="#090F1D"/>
</g>
<defs>
<clipPath id="clip0_1_42">
<rect width="24" height="24" fill="white" transform="translate(0.5)"/>
</clipPath>
</defs>
</svg>
